<svg width="24" height="24" viewBox="0 0 24 24" fill="none" xmlns="http://www.w3.org/2000/svg">
<path d="M2.88 7.88L4.42 9.42C4.15 10.23 4 11.1 4 12C4 16.41 7.59 20 12 20C16.41 20 20 16.41 20 12C20 7.59 16.41 4 12 4C11.1 4 10.23 4.15 9.42 4.42L7.89 2.89C9.15 2.32 10.54 2 12 2C17.52 2 22 6.48 22 12C22 17.52 17.52 22 12 22C6.48 22 2 17.52 2 12C2 10.53 2.32 9.14 2.88 7.88ZM7 5.5C7 6.33 6.33 7 5.5 7C4.67 7 4 6.33 4 5.5C4 4.67 4.67 4 5.5 4C6.33 4 7 4.67 7 5.5Z" fill="#010101"/>
<path d="M7.91 16H9.39V8.6H7.91V16ZM11.2108 16H13.3208C15.5008 16 16.9008 14.76 16.9008 12.27C16.9008 9.77 15.5008 8.6 13.2408 8.6H11.2108V16ZM12.6908 14.81V9.78H13.1508C14.5308 9.78 15.3908 10.46 15.3908 12.27C15.3908 14.07 14.5308 14.81 13.1508 14.81H12.6908Z" fill="#010101"/>
</svg>
