<svg width="50" height="50" viewBox="0 0 50 50" fill="none" xmlns="http://www.w3.org/2000/svg">
<path d="M38.9989 36H10.9838C9.89704 36 9 35.1532 9 34.0906V15.9094C9 14.8634 9.87978 14 10.9838 14H39.0162C40.103 14 41 14.8468 41 15.9094V34.0906C40.9828 35.1366 40.103 36 38.9989 36Z" stroke="#2559A3" stroke-width="2.5" stroke-miterlimit="10"/>
<path d="M36.495 29.3274H33.3299C32.8525 29.3274 32.4458 28.9384 32.4458 28.4433V24.6771C32.4458 24.1997 32.8348 23.793 33.3299 23.793H36.495C36.9724 23.793 37.3791 24.182 37.3791 24.6771V28.4433C37.3791 28.9207 36.9901 29.3274 36.495 29.3274Z" fill="#2559A3"/>
<path d="M23.8533 18.5625H13.4033V20.6843H23.8533V18.5625Z" fill="#2559A3"/>
<path d="M23.8533 22.3984H13.4033V24.5203H23.8533V22.3984Z" fill="#2559A3"/>
</svg>
