<svg width="50" height="50" viewBox="0 0 50 50" fill="none" xmlns="http://www.w3.org/2000/svg">
<path d="M33.7017 40H16.3142C14.473 40 13 38.487 13 36.6323V13.3677C13 11.4967 14.489 10 16.3142 10H33.6857C35.5269 10 36.9999 11.513 36.9999 13.3677V36.6161C37.0159 38.487 35.5269 40 33.7017 40Z" stroke="#2559A5" stroke-width="2.5" stroke-miterlimit="10"/>
<path d="M26.143 15.875H16.6265V17.528H26.143V15.875Z" fill="#2559A3"/>
<path d="M31.0698 18.8105H16.6265V20.4635H31.0698V18.8105Z" fill="#2559A3"/>
<path d="M26.8652 21.8262H16.6265V23.4791H26.8652V21.8262Z" fill="#2559A3"/>
<path d="M22.0026 24.7969H16.6265V26.4498H22.0026V24.7969Z" fill="#2559A3"/>
<path d="M30.9097 24.7969H23.0942V26.4498H30.9097V24.7969Z" fill="#2559A3"/>
</svg>
