<svg width="24" height="24" viewBox="0 0 24 24" fill="none" xmlns="http://www.w3.org/2000/svg">
<path d="M12 0C5.38417 0 0 5.38417 0 12C0 18.6158 5.38417 24 12 24C18.6158 24 24 18.6158 24 12C24 5.38417 18.6193 0 12 0ZM12 22.6135C6.14794 22.6135 1.38647 17.8521 1.38647 12C1.38647 6.14794 6.14794 1.38647 12 1.38647C17.8521 1.38647 22.6135 6.14794 22.6135 12C22.6135 17.8521 17.8521 22.6135 12 22.6135Z" fill="#E5B400"/>
<path d="M13.2521 8.72754H10.9023V12.5842H13.2521C14.3152 12.5842 15.1787 11.7207 15.1787 10.6576C15.1787 9.59107 14.3152 8.72754 13.2521 8.72754Z" fill="white"/>
<path d="M12 3.44336C7.27297 3.44336 3.44385 7.27592 3.44385 11.9995C3.44385 16.7232 7.27641 20.5557 12 20.5557C16.7236 20.5557 20.5562 16.7232 20.5562 11.9995C20.5562 7.27592 16.7271 3.44336 12 3.44336ZM13.2523 13.9709H10.9026V16.6612C10.9026 17.0431 10.5929 17.3562 10.2076 17.3562C9.82572 17.3562 9.51264 17.0465 9.51264 16.6612V8.0328C9.51264 7.65092 9.82228 7.33785 10.2076 7.33785H13.2523C15.0791 7.33785 16.5688 8.82408 16.5688 10.6544C16.5688 12.4846 15.0791 13.9709 13.2523 13.9709Z" fill="white"/>
<path d="M13.2521 12.5842H10.9023V8.72754H13.2521C14.3152 8.72754 15.1787 9.59108 15.1787 10.6542C15.1787 11.7172 14.3152 12.5842 13.2521 12.5842Z" fill="white"/>
</svg>
