<svg width="50" height="50" viewBox="0 0 50 50" fill="none" xmlns="http://www.w3.org/2000/svg">
<path d="M35.5148 26.5838L35.5299 26.4619C35.5753 26.0812 35.6359 25.5635 35.6359 25C35.6359 24.4365 35.5753 23.9188 35.5299 23.5381L35.5148 23.401L38.8161 20.8122C39.0129 20.6599 39.0735 20.3706 38.9372 20.1269L35.9085 14.8579C35.7873 14.6447 35.4693 14.5381 35.2573 14.6142L31.3654 16.1827L31.2594 16.1066C30.4719 15.4975 29.6239 15.0102 28.7456 14.6447L28.6244 14.599L28.0338 10.4264C28.0187 10.1827 27.7915 10 27.5341 10H21.4766C21.2192 10 20.992 10.1827 20.9618 10.4416L20.3712 14.6142L20.25 14.6599C19.402 15.0102 18.5842 15.4822 17.7362 16.1218L17.6302 16.198L13.7383 14.6294C13.5262 14.5533 13.2234 14.6447 13.1022 14.8579L10.0735 20.1269C9.93721 20.3706 9.99779 20.6447 10.1947 20.8122L13.496 23.401L13.4808 23.5381C13.4051 24.1015 13.3748 24.5736 13.3748 25C13.3748 25.4264 13.4051 25.8985 13.4808 26.4619L13.496 26.5838L10.1947 29.1726C9.99779 29.3401 9.95236 29.6294 10.0735 29.8731L13.1022 35.1421C13.1931 35.3096 13.3748 35.401 13.5717 35.401C13.6323 35.401 13.6928 35.3858 13.7534 35.3706L17.6453 33.802L17.7513 33.8782C18.5388 34.4873 19.3868 34.9746 20.2651 35.3401L20.3863 35.3858L20.9769 39.5584C21.0072 39.8173 21.2343 40 21.4918 40H27.5492C27.8067 40 28.0338 39.8173 28.0641 39.5584L28.6547 35.3858L28.7759 35.3401C29.6239 34.9898 30.4417 34.5178 31.2897 33.8782L31.3957 33.802L35.2876 35.3706C35.4996 35.4315 35.8025 35.3553 35.9236 35.1421L38.9524 29.8731C39.0735 29.6447 39.0281 29.3553 38.8312 29.1878L35.5148 26.5838ZM34.5607 32.3096L31.002 30.8629L29.745 31.8223C29.0787 32.3249 28.4427 32.7056 27.8067 32.9645L26.3226 33.5736L25.7623 37.4112H23.2484L22.7033 33.5736L21.2192 32.9645C20.5529 32.6904 19.9168 32.3249 19.3111 31.8528L18.039 30.8629L14.45 32.3249L13.1779 30.132L16.2218 27.7411L16.0249 26.1421C15.9795 25.6853 15.9492 25.3046 15.9492 24.9848C15.9492 24.6802 15.9795 24.3604 16.0249 23.8426L16.2218 22.2437L13.1779 19.8832L14.4349 17.6904L18.0088 19.1371L19.2657 18.1777C19.932 17.6751 20.568 17.2944 21.2041 17.0355L22.6881 16.4264L23.2484 12.5888H25.7471L26.2923 16.4264L27.7764 17.0355C28.4427 17.3249 29.0787 17.6751 29.6845 18.1472L30.9565 19.1371L34.5456 17.6751L35.8025 19.8528L32.7738 22.2589L32.9706 23.8579C33.0312 24.2843 33.0464 24.6193 33.0464 25C33.0464 25.335 33.0161 25.6853 32.9706 26.1269L32.7738 27.7259L35.8176 30.1167L34.5607 32.3096Z" fill="#2559A3"/>
<path d="M24.5061 19.1367C21.2956 19.1367 18.6758 21.7712 18.6758 24.9997C18.6758 28.2281 21.2956 30.8626 24.5061 30.8626C27.7165 30.8626 30.3364 28.2281 30.3364 24.9997C30.3364 21.7712 27.7165 19.1367 24.5061 19.1367ZM24.5061 28.2738C22.704 28.2738 21.2502 26.8118 21.2502 24.9997C21.2502 23.1875 22.704 21.7256 24.5061 21.7256C26.3082 21.7256 27.7619 23.1875 27.7619 24.9997C27.7619 26.8118 26.293 28.2738 24.5061 28.2738Z" fill="#2559A3"/>
</svg>
