<svg width="50" height="50" viewBox="0 0 50 50" fill="none" xmlns="http://www.w3.org/2000/svg">
<path d="M38.9989 36H10.9838C9.89704 36 9 35.1532 9 34.0906V15.9094C9 14.8634 9.87978 14 10.9838 14H39.0162C40.103 14 41 14.8468 41 15.9094V34.0906C40.9828 35.1366 40.103 36 38.9989 36Z" stroke="#2559A3" stroke-width="2.5" stroke-miterlimit="10"/>
<path d="M16.8912 22.0945C16.9802 22.0945 17.0513 22.1123 17.1225 22.1123L17.4783 20.4401C17.3004 20.4223 17.1047 20.3867 16.8912 20.3867C13.9915 20.3867 11.6432 22.5926 11.3408 25.4212H13.0486C13.3511 23.5355 14.9521 22.0945 16.8912 22.0945Z" fill="#2559A3"/>
<path d="M18.5998 20.6719L18.244 22.3441C19.7384 22.9134 20.7879 24.3188 20.7879 25.991C20.7879 28.1436 19.0446 29.887 16.892 29.887C14.9351 29.887 13.334 28.446 13.0672 26.5781H11.3594C11.644 29.3889 14.01 31.6126 16.9098 31.6126C20.0052 31.6126 22.5136 29.1042 22.5136 26.0088C22.4958 23.5004 20.8591 21.4013 18.5998 20.6719Z" fill="#2559A3"/>
<path d="M24.3986 29.0331C24.1674 29.0331 23.9361 28.9264 23.7582 28.7307C23.4735 28.3927 23.5269 27.8768 23.8649 27.5744L29.8779 22.5577L32.7954 24.5857L37.2962 20.6008C37.6342 20.2984 38.1501 20.3339 38.4525 20.6719C38.755 21.0099 38.7194 21.5258 38.3814 21.8283L32.9199 26.6849L29.9668 24.6213L24.9145 28.8374C24.7722 28.962 24.5765 29.0331 24.3986 29.0331Z" fill="#2559A3"/>
<path d="M38.6132 30.1523H23.5986V31.0774H38.6132V30.1523Z" fill="#2559A3"/>
</svg>
