<svg width="131" height="28" viewBox="0 0 131 28" fill="none" xmlns="http://www.w3.org/2000/svg">
<path d="M0 13.6371C2.04126 12.7776 3.68562 12.0327 4.89525 11.4025C6.12379 10.7913 7.04992 10.1992 7.71144 9.66439C8.37296 9.1105 8.78878 8.55662 8.99668 8.00273C9.20459 7.42974 9.29909 6.76126 9.29909 5.97817V4.7367H1.15294V1.60437H12.9469V6.34106C12.9469 7.12415 12.8713 7.83083 12.7201 8.44202C12.5689 9.05321 12.3421 9.64529 12.0019 10.1992C11.6806 10.7531 11.227 11.2688 10.6788 11.7653C10.1118 12.2619 9.41249 12.7585 8.56197 13.2742C7.71144 13.7899 6.70971 14.3056 5.53787 14.8595C4.36604 15.3943 3.02409 15.9864 1.47425 16.6548L0 13.6371ZM13.6462 28C12.4555 28 11.3404 27.8854 10.3197 27.6562C9.29909 27.427 8.41076 27.0832 7.65474 26.6248C6.89872 26.1664 6.3128 25.6126 5.87808 24.9632C5.44337 24.3138 5.23546 23.5689 5.23546 22.7667V21.487C5.23546 20.6658 5.44337 19.94 5.87808 19.2715C6.3128 18.5839 6.91762 18.03 7.65474 17.5716C8.41076 17.1132 9.29909 16.7694 10.3197 16.5402C11.3404 16.3111 12.4555 16.1965 13.6462 16.1965C14.837 16.1965 15.9521 16.3111 16.9727 16.5402C17.9934 16.7694 18.8817 17.1132 19.6377 17.5716C20.3937 18.03 20.9797 18.5839 21.4144 19.2333C21.8491 19.8827 22.057 20.6276 22.057 21.4488V22.7285C22.057 23.5498 21.8491 24.2756 21.4144 24.925C20.9797 25.5744 20.3937 26.1282 19.6377 26.5866C18.8817 27.045 17.9934 27.3888 16.9727 27.618C15.9521 27.8854 14.837 28 13.6462 28ZM13.6462 19.1951C13.0036 19.1951 12.3988 19.2715 11.8318 19.4052C11.2459 19.5389 10.7355 19.7299 10.3008 19.94C9.86611 20.1692 9.507 20.4366 9.22349 20.7231C8.95888 21.0287 8.82658 21.3533 8.82658 21.6971V22.4611C8.82658 22.8049 8.95888 23.1296 9.22349 23.4352C9.4881 23.7408 9.84721 24.0082 10.3008 24.2183C10.7355 24.4475 11.2459 24.6194 11.8318 24.7531C12.4177 24.8868 13.0225 24.9632 13.6462 24.9632C14.2888 24.9632 14.8937 24.8868 15.4607 24.7531C16.0466 24.6385 16.5569 24.4666 17.0105 24.2374C17.4452 24.0082 17.8044 23.7408 18.0879 23.4543C18.3525 23.1487 18.4848 22.824 18.4848 22.4802V21.7162C18.4848 21.3724 18.3525 21.0477 18.0879 20.7422C17.8044 20.4366 17.4452 20.1692 17.0105 19.94C16.5758 19.7108 16.0655 19.5389 15.4796 19.4052C14.8937 19.2715 14.2888 19.1951 13.6462 19.1951ZM18.3714 3.76262V0H21.9814V16.0628H18.3714V12.5293H13.8541V9.4352H18.3714V6.85675H14.3077V3.76262H18.3714Z" fill="#0051A3"/>
<path d="M25.9883 18.6794C27.4436 17.8008 28.6722 17.0177 29.6928 16.3493C30.7134 15.6617 31.564 15.0314 32.2444 14.4584C32.9248 13.8854 33.4729 13.3315 33.8698 12.8158C34.2667 12.3001 34.5691 11.7844 34.7582 11.2497C34.9661 10.7149 35.0984 10.161 35.1551 9.58799C35.2118 8.99591 35.2496 8.34652 35.2496 7.63984V5.61528H26.4797V2.42565H38.9163V7.81173C38.9163 8.78581 38.8596 9.66439 38.7651 10.4666C38.6706 11.2688 38.4816 12.0136 38.1981 12.7012C37.9146 13.3888 37.5176 14.0573 37.0073 14.7067C36.497 15.3561 35.8355 16.0246 35.0228 16.7121C34.21 17.3997 33.2272 18.1446 32.0554 18.9277C30.8835 19.7108 29.5038 20.6085 27.8972 21.6016L25.9883 18.6794ZM47.4594 27.1787H43.7926V0H47.4594V27.1787Z" fill="#0051A3"/>
<path d="M63.506 13.0641C62.4286 13.0641 61.4647 12.8922 60.6142 12.5675C59.7637 12.2428 59.0454 11.8035 58.4784 11.2688C57.8925 10.734 57.4578 10.1037 57.1554 9.4161C56.853 8.70941 56.6829 8.00273 56.6829 7.25784V6.24557C56.6829 5.50068 56.8341 4.794 57.1554 4.08731C57.4578 3.38063 57.9114 2.76944 58.4784 2.23465C59.0643 1.69986 59.7637 1.26057 60.6142 0.93588C61.4647 0.611187 62.4286 0.439291 63.506 0.439291C64.5833 0.439291 65.5472 0.611187 66.3978 0.93588C67.2483 1.26057 67.9665 1.69986 68.5335 2.23465C69.1195 2.76944 69.5542 3.38063 69.8566 4.08731C70.159 4.794 70.3102 5.50068 70.3102 6.24557V7.23874C70.3102 7.98363 70.159 8.69031 69.8566 9.397C69.5542 10.1037 69.1006 10.7149 68.5335 11.2497C67.9476 11.7844 67.2483 12.2237 66.3978 12.5484C65.5472 12.8922 64.5833 13.0641 63.506 13.0641ZM63.506 3.53342C62.9579 3.53342 62.4853 3.60982 62.0695 3.78172C61.6537 3.95362 61.2946 4.16371 60.9922 4.4311C60.7087 4.6985 60.4819 4.98499 60.3307 5.30969C60.1795 5.63438 60.1228 5.97817 60.1228 6.34106V7.16235C60.1228 7.50614 60.1984 7.84993 60.3307 8.19372C60.4819 8.51842 60.6898 8.82401 60.9733 9.09141C61.2568 9.3588 61.6159 9.56889 62.0506 9.74079C62.4664 9.91269 62.9579 9.98909 63.4871 9.98909C64.0163 9.98909 64.5077 9.91269 64.9424 9.74079C65.3582 9.56889 65.7173 9.3588 66.0198 9.09141C66.3033 8.82401 66.5301 8.53752 66.6624 8.19372C66.8136 7.86903 66.8892 7.52524 66.8892 7.16235V6.34106C66.8892 5.99727 66.8136 5.65348 66.6624 5.30969C66.5112 4.98499 66.3033 4.6794 66.0198 4.41201C65.7362 4.14461 65.3771 3.93452 64.9424 3.76262C64.5266 3.60982 64.0541 3.53342 63.506 3.53342ZM77.379 14.7258V22.4611H64.1108V24.5048H78.1917V27.427H60.5764V19.6917H73.8446V17.648H60.4252V14.7258H77.379ZM77.379 5.02319H80.9134V8.23192H77.379V13.4843H73.7312V0H77.379V5.02319Z" fill="#BD9300"/>
<path d="M86.3568 11.9754C88.398 11.9754 90.3259 11.9563 92.1215 11.899C93.917 11.8608 95.7315 11.7462 97.5648 11.5553L97.8861 14.573C97.0167 14.6685 96.0906 14.7449 95.1078 14.8022C94.1249 14.8595 93.0287 14.8977 91.8191 14.9359C90.6094 14.955 89.2675 14.9741 87.7932 14.9932C86.319 14.9932 84.6557 15.0123 82.8035 15.0123V6.66576H91.5355V4.25921H82.8035V1.22237H95.1267V9.588H86.3946V11.9754H86.3568ZM86.4702 17.2469H103.556V27.2169H86.4702V17.2469ZM90.0802 24.161H99.9463V20.2838H90.0802V24.161ZM103.556 16.0055H99.9085V0H103.556V16.0055Z" fill="#BD9300"/>
<path d="M116.862 14.2108V12.339H109.756V0.764648H127.371V3.68689H113.347V5.11936H127.144V7.98429H113.347V9.41676H127.654V12.339H120.51V14.2108H131V17.1712H106.372V14.2108H116.862ZM109.567 18.7947H127.673V27.5232H124.025V21.7742H109.567V18.7947V18.7947Z" fill="#BD9300"/>
</svg>
