<svg width="328" height="460" viewBox="0 0 328 460" fill="none" xmlns="http://www.w3.org/2000/svg">
<g opacity="0.03">
<g clip-path="url(#clip0_1319_3732)">
<path d="M106.538 10H59.5986V25.993H106.538V10Z" fill="#010101"/>
<path d="M101.503 45.2491L59.5986 67.1171V50.1449L106.538 25.9922V36.5998C106.538 40.1901 104.914 43.4539 101.503 45.2491Z" fill="white"/>
<path d="M161.111 10H113.197V25.993H161.111V10Z" fill="#010101"/>
<path d="M52.9393 10H6V25.993H52.9393V10Z" fill="#010101"/>
<path d="M47.9043 45.2491L6 67.1171V50.1449L52.9393 25.9922V36.5998C52.9393 40.1901 51.3151 43.4539 47.9043 45.2491Z" fill="white"/>
<path d="M113.197 40.0283V48.188C113.197 52.4311 116.608 56.0213 120.993 56.0213H161.273V40.0283H113.197Z" fill="white"/>
</g>
<g clip-path="url(#clip1_1319_3732)">
<path d="M106.538 132.252H59.5986V148.245H106.538V132.252Z" fill="#010101"/>
<path d="M101.503 167.501L59.5986 189.369V172.397L106.538 148.244V158.852C106.538 162.442 104.914 165.706 101.503 167.501Z" fill="white"/>
<path d="M161.111 132.252H113.197V148.245H161.111V132.252Z" fill="#010101"/>
<path d="M52.9393 132.252H6V148.245H52.9393V132.252Z" fill="#010101"/>
<path d="M47.9043 167.501L6 189.369V172.397L52.9393 148.244V158.852C52.9393 162.442 51.3151 165.706 47.9043 167.501Z" fill="white"/>
<path d="M113.197 162.28V170.44C113.197 174.683 116.608 178.273 120.993 178.273H161.273V162.28H113.197Z" fill="white"/>
</g>
<g clip-path="url(#clip2_1319_3732)">
<path d="M106.538 254.504H59.5986V270.497H106.538V254.504Z" fill="#010101"/>
<path d="M101.503 289.753L59.5986 311.621V294.649L106.538 270.496V281.104C106.538 284.694 104.914 287.958 101.503 289.753Z" fill="white"/>
<path d="M161.111 254.504H113.197V270.497H161.111V254.504Z" fill="#010101"/>
<path d="M52.9393 254.504H6V270.497H52.9393V254.504Z" fill="#010101"/>
<path d="M47.9043 289.753L6 311.621V294.649L52.9393 270.496V281.104C52.9393 284.694 51.3151 287.958 47.9043 289.753Z" fill="white"/>
<path d="M113.197 284.532V292.692C113.197 296.935 116.608 300.525 120.993 300.525H161.273V284.532H113.197Z" fill="white"/>
</g>
<g clip-path="url(#clip3_1319_3732)">
<path d="M106.538 376.756H59.5986V392.749H106.538V376.756Z" fill="#010101"/>
<path d="M101.503 412.005L59.5986 433.873V416.901L106.538 392.748V403.356C106.538 406.946 104.914 410.21 101.503 412.005Z" fill="white"/>
<path d="M161.111 376.756H113.197V392.749H161.111V376.756Z" fill="#010101"/>
<path d="M52.9393 376.756H6V392.749H52.9393V376.756Z" fill="#010101"/>
<path d="M47.9043 412.005L6 433.873V416.901L52.9393 392.748V403.356C52.9393 406.946 51.3151 410.21 47.9043 412.005Z" fill="white"/>
<path d="M113.197 406.784V414.944C113.197 419.187 116.608 422.777 120.993 422.777H161.273V406.784H113.197Z" fill="white"/>
</g>
<g clip-path="url(#clip4_1319_3732)">
<path d="M106.538 71.126H59.5986V87.119H106.538V71.126Z" fill="#010101"/>
<path d="M101.503 106.375L59.5986 128.243V111.271L106.538 87.1182V97.7258C106.538 101.316 104.914 104.58 101.503 106.375Z" fill="white"/>
<path d="M161.111 71.126H113.197V87.119H161.111V71.126Z" fill="#010101"/>
<path d="M52.9393 71.126H6V87.119H52.9393V71.126Z" fill="#010101"/>
<path d="M47.9043 106.375L6 128.243V111.271L52.9393 87.1182V97.7258C52.9393 101.316 51.3151 104.58 47.9043 106.375Z" fill="white"/>
<path d="M113.197 101.154V109.314C113.197 113.557 116.608 117.147 120.993 117.147H161.273V101.154H113.197Z" fill="white"/>
</g>
<g clip-path="url(#clip5_1319_3732)">
<path d="M106.538 193.378H59.5986V209.371H106.538V193.378Z" fill="#010101"/>
<path d="M101.503 228.627L59.5986 250.495V233.523L106.538 209.37V219.978C106.538 223.568 104.914 226.832 101.503 228.627Z" fill="white"/>
<path d="M161.111 193.378H113.197V209.371H161.111V193.378Z" fill="#010101"/>
<path d="M52.9393 193.378H6V209.371H52.9393V193.378Z" fill="#010101"/>
<path d="M47.9043 228.627L6 250.495V233.523L52.9393 209.37V219.978C52.9393 223.568 51.3151 226.832 47.9043 228.627Z" fill="white"/>
<path d="M113.197 223.406V231.566C113.197 235.809 116.608 239.399 120.993 239.399H161.273V223.406H113.197Z" fill="white"/>
</g>
<g clip-path="url(#clip6_1319_3732)">
<path d="M106.538 315.63H59.5986V331.623H106.538V315.63Z" fill="#010101"/>
<path d="M101.503 350.879L59.5986 372.747V355.775L106.538 331.622V342.23C106.538 345.82 104.914 349.084 101.503 350.879Z" fill="white"/>
<path d="M161.111 315.63H113.197V331.623H161.111V315.63Z" fill="#010101"/>
<path d="M52.9393 315.63H6V331.623H52.9393V315.63Z" fill="#010101"/>
<path d="M47.9043 350.879L6 372.747V355.775L52.9393 331.622V342.23C52.9393 345.82 51.3151 349.084 47.9043 350.879Z" fill="white"/>
<path d="M113.197 345.658V353.818C113.197 358.061 116.608 361.651 120.993 361.651H161.273V345.658H113.197Z" fill="white"/>
</g>
<g clip-path="url(#clip7_1319_3732)">
<path d="M267.221 10H220.585V25.993H267.221V10Z" fill="#010101"/>
<path d="M262.219 45.2491L220.585 67.1171V50.1449L267.221 25.9922V36.5998C267.221 40.1901 265.608 43.4539 262.219 45.2491Z" fill="white"/>
<path d="M321.443 10H273.838V25.993H321.443V10Z" fill="#010101"/>
<path d="M213.969 10H167.333V25.993H213.969V10Z" fill="#010101"/>
<path d="M208.966 45.2491L167.333 67.1171V50.1449L213.969 25.9922V36.5998C213.969 40.1901 212.355 43.4539 208.966 45.2491Z" fill="white"/>
<path d="M273.838 40.0283V48.188C273.838 52.4311 277.227 56.0213 281.584 56.0213H321.604V40.0283H273.838Z" fill="white"/>
</g>
<g clip-path="url(#clip8_1319_3732)">
<path d="M267.221 132.252H220.585V148.245H267.221V132.252Z" fill="#010101"/>
<path d="M262.219 167.501L220.585 189.369V172.397L267.221 148.244V158.852C267.221 162.442 265.608 165.706 262.219 167.501Z" fill="white"/>
<path d="M321.443 132.252H273.838V148.245H321.443V132.252Z" fill="#010101"/>
<path d="M213.969 132.252H167.333V148.245H213.969V132.252Z" fill="#010101"/>
<path d="M208.966 167.501L167.333 189.369V172.397L213.969 148.244V158.852C213.969 162.442 212.355 165.706 208.966 167.501Z" fill="white"/>
<path d="M273.838 162.28V170.44C273.838 174.683 277.227 178.273 281.584 178.273H321.604V162.28H273.838Z" fill="white"/>
</g>
<g clip-path="url(#clip9_1319_3732)">
<path d="M267.221 254.504H220.585V270.497H267.221V254.504Z" fill="#010101"/>
<path d="M262.219 289.753L220.585 311.621V294.649L267.221 270.496V281.104C267.221 284.694 265.608 287.958 262.219 289.753Z" fill="white"/>
<path d="M321.443 254.504H273.838V270.497H321.443V254.504Z" fill="#010101"/>
<path d="M213.969 254.504H167.333V270.497H213.969V254.504Z" fill="#010101"/>
<path d="M208.966 289.753L167.333 311.621V294.649L213.969 270.496V281.104C213.969 284.694 212.355 287.958 208.966 289.753Z" fill="white"/>
<path d="M273.838 284.532V292.692C273.838 296.935 277.227 300.525 281.584 300.525H321.604V284.532H273.838Z" fill="white"/>
</g>
<g clip-path="url(#clip10_1319_3732)">
<path d="M267.221 376.756H220.585V392.749H267.221V376.756Z" fill="#010101"/>
<path d="M262.219 412.005L220.585 433.873V416.901L267.221 392.748V403.356C267.221 406.946 265.608 410.21 262.219 412.005Z" fill="white"/>
<path d="M321.443 376.756H273.838V392.749H321.443V376.756Z" fill="#010101"/>
<path d="M213.969 376.756H167.333V392.749H213.969V376.756Z" fill="#010101"/>
<path d="M208.966 412.005L167.333 433.873V416.901L213.969 392.748V403.356C213.969 406.946 212.355 410.21 208.966 412.005Z" fill="white"/>
<path d="M273.838 406.784V414.944C273.838 419.187 277.227 422.777 281.584 422.777H321.604V406.784H273.838Z" fill="white"/>
</g>
<g clip-path="url(#clip11_1319_3732)">
<path d="M267.221 71.126H220.585V87.119H267.221V71.126Z" fill="#010101"/>
<path d="M262.219 106.375L220.585 128.243V111.271L267.221 87.1182V97.7258C267.221 101.316 265.608 104.58 262.219 106.375Z" fill="white"/>
<path d="M321.443 71.126H273.838V87.119H321.443V71.126Z" fill="#010101"/>
<path d="M213.969 71.126H167.333V87.119H213.969V71.126Z" fill="#010101"/>
<path d="M208.966 106.375L167.333 128.243V111.271L213.969 87.1182V97.7258C213.969 101.316 212.355 104.58 208.966 106.375Z" fill="white"/>
<path d="M273.838 101.154V109.314C273.838 113.557 277.227 117.147 281.584 117.147H321.604V101.154H273.838Z" fill="white"/>
</g>
<g clip-path="url(#clip12_1319_3732)">
<path d="M267.221 193.378H220.585V209.371H267.221V193.378Z" fill="#010101"/>
<path d="M262.219 228.627L220.585 250.495V233.523L267.221 209.37V219.978C267.221 223.568 265.608 226.832 262.219 228.627Z" fill="white"/>
<path d="M321.443 193.378H273.838V209.371H321.443V193.378Z" fill="#010101"/>
<path d="M213.969 193.378H167.333V209.371H213.969V193.378Z" fill="#010101"/>
<path d="M208.966 228.627L167.333 250.495V233.523L213.969 209.37V219.978C213.969 223.568 212.355 226.832 208.966 228.627Z" fill="white"/>
<path d="M273.838 223.406V231.566C273.838 235.809 277.227 239.399 281.584 239.399H321.604V223.406H273.838Z" fill="white"/>
</g>
<g clip-path="url(#clip13_1319_3732)">
<path d="M267.221 315.63H220.585V331.623H267.221V315.63Z" fill="#010101"/>
<path d="M262.219 350.879L220.585 372.747V355.775L267.221 331.622V342.23C267.221 345.82 265.608 349.084 262.219 350.879Z" fill="white"/>
<path d="M321.443 315.63H273.838V331.623H321.443V315.63Z" fill="#010101"/>
<path d="M213.969 315.63H167.333V331.623H213.969V315.63Z" fill="#010101"/>
<path d="M208.966 350.879L167.333 372.747V355.775L213.969 331.622V342.23C213.969 345.82 212.355 349.084 208.966 350.879Z" fill="white"/>
<path d="M273.838 345.658V353.818C273.838 358.061 277.227 361.651 281.584 361.651H321.604V345.658H273.838Z" fill="white"/>
</g>
</g>
<defs>
<clipPath id="clip0_1319_3732">
<rect width="155.32" height="57.1178" fill="white" transform="translate(6 10)"/>
</clipPath>
<clipPath id="clip1_1319_3732">
<rect width="155.32" height="57.1178" fill="white" transform="translate(6 132.252)"/>
</clipPath>
<clipPath id="clip2_1319_3732">
<rect width="155.32" height="57.1178" fill="white" transform="translate(6 254.504)"/>
</clipPath>
<clipPath id="clip3_1319_3732">
<rect width="155.32" height="57.1178" fill="white" transform="translate(6 376.756)"/>
</clipPath>
<clipPath id="clip4_1319_3732">
<rect width="155.32" height="57.1178" fill="white" transform="translate(6 71.126)"/>
</clipPath>
<clipPath id="clip5_1319_3732">
<rect width="155.32" height="57.1178" fill="white" transform="translate(6 193.378)"/>
</clipPath>
<clipPath id="clip6_1319_3732">
<rect width="155.32" height="57.1178" fill="white" transform="translate(6 315.63)"/>
</clipPath>
<clipPath id="clip7_1319_3732">
<rect width="154.318" height="57.1178" fill="white" transform="translate(167.333 10)"/>
</clipPath>
<clipPath id="clip8_1319_3732">
<rect width="154.318" height="57.1178" fill="white" transform="translate(167.333 132.252)"/>
</clipPath>
<clipPath id="clip9_1319_3732">
<rect width="154.318" height="57.1178" fill="white" transform="translate(167.333 254.504)"/>
</clipPath>
<clipPath id="clip10_1319_3732">
<rect width="154.318" height="57.1178" fill="white" transform="translate(167.333 376.756)"/>
</clipPath>
<clipPath id="clip11_1319_3732">
<rect width="154.318" height="57.1178" fill="white" transform="translate(167.333 71.126)"/>
</clipPath>
<clipPath id="clip12_1319_3732">
<rect width="154.318" height="57.1178" fill="white" transform="translate(167.333 193.378)"/>
</clipPath>
<clipPath id="clip13_1319_3732">
<rect width="154.318" height="57.1178" fill="white" transform="translate(167.333 315.63)"/>
</clipPath>
</defs>
</svg>
