<svg width="90" height="90" viewBox="0 0 90 90" fill="none" xmlns="http://www.w3.org/2000/svg">
<path d="M43 22H40V25H43V22Z" fill="black"/>
<path d="M46.0005 22V25H43.0005V28H46.0005H49.0005V25V22H46.0005Z" fill="black"/>
<path d="M30.9995 27.999H27.9995V30.999H30.9995V27.999Z" fill="black"/>
<path d="M61 27.999H58V30.999H61V27.999Z" fill="black"/>
<path d="M34 22H22V37H37V22H34ZM34 28V34H25V25H34V28Z" fill="black"/>
<path d="M64.0005 22H52.0005V37H67.0005V22H64.0005ZM64.0005 28V34H55.0005V25H64.0005V28Z" fill="black"/>
<path d="M49 39.999V36.999V33.999V30.999H46V33.999H43V30.999V27.999H40V30.999V33.999V36.999H43V39.999H46V42.999H49H52V39.999H49Z" fill="black"/>
<path d="M28 46V43V40H25H22V43H25V46V49H28H31V46H28Z" fill="black"/>
<path d="M57.9995 43V40H60.9995H63.9995H66.9995V43V46V49H63.9995V46V43H60.9995V46H57.9995H54.9995V43H57.9995Z" fill="black"/>
<path d="M55.0005 52.001H52.0005V55.001H55.0005V52.001Z" fill="black"/>
<path d="M61 49H64V52H67V55H64H61H58V52V49H61Z" fill="black"/>
<path d="M49 46V49H46V46H43H40V43H37V40H34V43H31V46H34V49H37V52H40V49H43V52V55H40V58H43H46V55H49V52H52V49V46H49Z" fill="black"/>
<path d="M30.9995 58H27.9995V61H30.9995V58Z" fill="black"/>
<path d="M34 52.001H22V67.001H37V52.001H34ZM34 58.001V64.001H25V55.001H34V58.001Z" fill="black"/>
<path d="M58.5 57.5H55.5H52.5V54.5H49.5V57.5V60.5V63.5H46.5V60.5H43.5H40.5V63.5V66.5H43.5H46.5H49.5H52.5V63.5V60.5H55.5V63.5V66.5H58.5V63.5V60.5H61.5V57.5H58.5Z" fill="black"/>
<path d="M64.0005 67H61.0005V64H64.0005V61V58H67.0005V61V64V67H64.0005Z" fill="black"/>
</svg>
