<svg width="115" height="77" viewBox="0 0 115 77" fill="none" xmlns="http://www.w3.org/2000/svg">
<mask id="mask0_1275_2299" style="mask-type:alpha" maskUnits="userSpaceOnUse" x="4" y="0" width="95" height="75">
<ellipse cx="51.5" cy="37.5" rx="47.5" ry="37.5" fill="#C4C4C4"/>
</mask>
<g mask="url(#mask0_1275_2299)">
<path d="M52.4348 99.2133L22.2007 83.4252V48.4863H52.4348V99.2133Z" fill="#0050A2" stroke="white" stroke-width="3.01587" stroke-miterlimit="10"/>
<path d="M82.3824 84.2068L52.1634 99.06V48.333H82.3824V84.2068Z" fill="#0050A2" stroke="white" stroke-width="3.01587" stroke-miterlimit="10"/>
<path d="M52.9024 61.0443L22.1104 47.6237L52.7365 34.3086L82.7294 47.7594L52.9024 61.0443Z" fill="#E5B400" stroke="white" stroke-width="3.01587" stroke-miterlimit="10" stroke-linecap="round" stroke-linejoin="round"/>
<path d="M68.4492 32.8594L59.9293 44.9229" stroke="#0050A2" stroke-width="3.01587" stroke-miterlimit="10" stroke-linecap="round"/>
<path d="M33.3293 33.1182L41.3515 44.9253" stroke="#0050A2" stroke-width="3.01587" stroke-miterlimit="10" stroke-linecap="round"/>
<path d="M51.4548 26.7393L51.3342 41.6377" stroke="#0050A2" stroke-width="3.01587" stroke-miterlimit="10" stroke-linecap="round"/>
<path d="M29.9365 14.2394L31.8214 18.0544C31.8968 18.2052 32.0476 18.3259 32.2285 18.3409L36.4357 18.9592C36.873 19.0195 37.0539 19.5624 36.7373 19.864L33.6912 22.8346C33.5706 22.9552 33.5103 23.1362 33.5404 23.3021L34.2492 27.4941C34.3246 27.9314 33.8722 28.2632 33.4801 28.0521L29.7103 26.0767C29.5595 26.0013 29.3634 26.0013 29.2127 26.0767L25.4428 28.0521C25.0507 28.2632 24.5984 27.9314 24.6738 27.4941L25.3976 23.3021C25.4277 23.1362 25.3674 22.9552 25.2468 22.8346L22.2007 19.864C21.8841 19.5624 22.065 19.0195 22.5023 18.9592L26.7095 18.3409C26.8904 18.3108 27.0261 18.2052 27.1166 18.0544L29.0015 14.2394C29.1825 13.8473 29.7404 13.8473 29.9365 14.2394Z" fill="#0050A2"/>
<path d="M52.827 6.26336L54.7119 10.0784C54.7873 10.2292 54.9381 10.3499 55.1191 10.365L59.3262 10.9832C59.7635 11.0435 59.9445 11.5864 59.6278 11.888L56.5818 14.8586C56.4611 14.9792 56.4008 15.1602 56.431 15.3261L57.1548 19.5181C57.2302 19.9554 56.7778 20.2872 56.3858 20.0761L52.6159 18.1007C52.4651 18.0253 52.2691 18.0253 52.1183 18.1007L48.3485 20.0761C47.9564 20.2872 47.504 19.9554 47.5794 19.5181L48.3032 15.3261C48.3334 15.1602 48.2731 14.9792 48.1524 14.8586L45.1064 11.888C44.7897 11.5864 44.9707 11.0435 45.408 10.9832L49.6151 10.365C49.7961 10.3348 49.9318 10.2292 50.0223 10.0784L51.9072 6.26336C52.0731 5.85622 52.631 5.85622 52.827 6.26336Z" fill="#0050A2"/>
<path d="M75.0087 13.3497L76.8936 17.1648C76.969 17.3156 77.1198 17.4362 77.3008 17.4513L81.5079 18.0696C81.9452 18.1299 82.1262 18.6727 81.8095 18.9743L78.7635 21.9449C78.6429 22.0656 78.5825 22.2465 78.6127 22.4124L79.3365 26.6045C79.4119 27.0418 78.9595 27.3735 78.5675 27.1624L74.7976 25.187C74.6468 25.1116 74.4508 25.1116 74.3 25.187L70.5302 27.1624C70.1381 27.3735 69.6857 27.0418 69.7611 26.6045L70.4849 22.4124C70.5151 22.2465 70.4548 22.0656 70.3341 21.9449L67.2881 18.9743C66.9714 18.6727 67.1524 18.1299 67.5897 18.0696L71.7968 17.4513C71.9778 17.4211 72.1135 17.3156 72.204 17.1648L74.0889 13.3497C74.2397 12.9576 74.8127 12.9576 75.0087 13.3497Z" fill="#0050A2"/>
</g>
</svg>
