<svg width="114" height="77" viewBox="0 0 114 77" fill="none" xmlns="http://www.w3.org/2000/svg">
<g clip-path="url(#clip0_1412_2452)">
<path d="M81.4132 22.7139H45.5097C42.7119 22.7139 40.4438 24.9709 40.4438 27.7551V59.9588C40.4438 62.743 42.7119 65.0001 45.5097 65.0001H81.4132C84.2111 65.0001 86.4791 62.743 86.4791 59.9588V27.7551C86.4791 24.9709 84.2111 22.7139 81.4132 22.7139Z" fill="#0051A3"/>
<path d="M79.1796 20.5664H43.2761C40.4783 20.5664 38.2102 22.8235 38.2102 25.6077V57.8113C38.2102 60.5955 40.4783 62.8526 43.2761 62.8526H79.1796C81.9774 62.8526 84.2455 60.5955 84.2455 57.8113V25.6077C84.2455 22.8235 81.9774 20.5664 79.1796 20.5664Z" fill="#EFEFEF"/>
<path d="M88.4669 35.7793H70.9016C69.5027 35.7793 68.3687 36.9078 68.3687 38.2999V47.7601C68.3687 49.1522 69.5027 50.2807 70.9016 50.2807H88.4669C89.8658 50.2807 90.9999 49.1522 90.9999 47.7601V38.2999C90.9999 36.9078 89.8658 35.7793 88.4669 35.7793Z" fill="#0051A3"/>
<path d="M85.9119 33.583H68.7754C67.3765 33.583 66.2424 34.7115 66.2424 36.1036V45.5638C66.2424 46.9559 67.3765 48.0844 68.7754 48.0844H85.9119C87.3108 48.0844 88.4448 46.9559 88.4448 45.5638V36.1036C88.4448 34.7115 87.3108 33.583 85.9119 33.583Z" fill="#387BE6"/>
<path d="M73.6714 43.9854C75.4207 43.9854 76.8387 42.5743 76.8387 40.8335C76.8387 39.0928 75.4207 37.6816 73.6714 37.6816C71.9222 37.6816 70.5042 39.0928 70.5042 40.8335C70.5042 42.5743 71.9222 43.9854 73.6714 43.9854Z" fill="#AACEE8"/>
<path d="M26.3464 31.3081L11.6816 46.9249C10.7264 47.9421 10.7807 49.5371 11.8028 50.4876C12.8249 51.4381 14.4278 51.3841 15.3829 50.3669L30.0477 34.7501C31.0029 33.7329 30.9486 32.1379 29.9265 31.1874C28.9044 30.2369 27.3015 30.2909 26.3464 31.3081Z" fill="#0051A3"/>
<path d="M33.8903 44.3015C42.8536 44.3015 50.1199 37.0705 50.1199 28.1507C50.1199 19.2309 42.8536 12 33.8903 12C24.9269 12 17.6606 19.2309 17.6606 28.1507C17.6606 37.0705 24.9269 44.3015 33.8903 44.3015Z" fill="#0051A3"/>
<path d="M33.8903 40.2295C40.5937 40.2295 46.0279 34.8217 46.0279 28.1509C46.0279 21.48 40.5937 16.0723 33.8903 16.0723C27.1869 16.0723 21.7527 21.48 21.7527 28.1509C21.7527 34.8217 27.1869 40.2295 33.8903 40.2295Z" fill="#E5B400"/>
<path d="M27.1582 30.3553C28.3819 30.3553 29.3739 29.3681 29.3739 28.1503C29.3739 26.9325 28.3819 25.9453 27.1582 25.9453C25.9344 25.9453 24.9424 26.9325 24.9424 28.1503C24.9424 29.3681 25.9344 30.3553 27.1582 30.3553Z" fill="#EFEFEF"/>
<path d="M33.8903 30.3553C35.1141 30.3553 36.1061 29.3681 36.1061 28.1503C36.1061 26.9325 35.1141 25.9453 33.8903 25.9453C32.6666 25.9453 31.6746 26.9325 31.6746 28.1503C31.6746 29.3681 32.6666 30.3553 33.8903 30.3553Z" fill="#EFEFEF"/>
<path d="M40.6225 30.3553C41.8462 30.3553 42.8383 29.3681 42.8383 28.1503C42.8383 26.9325 41.8462 25.9453 40.6225 25.9453C39.3988 25.9453 38.4067 26.9325 38.4067 28.1503C38.4067 29.3681 39.3988 30.3553 40.6225 30.3553Z" fill="#EFEFEF"/>
</g>
<defs>
<clipPath id="clip0_1412_2452">
<rect width="80" height="53" fill="white" transform="translate(11 12)"/>
</clipPath>
</defs>
</svg>
