<svg width="32" height="32" viewBox="0 0 32 32" fill="none" xmlns="http://www.w3.org/2000/svg">
<path d="M16.0028 29.6073C13.6632 29.6073 11.5957 28.1001 10.8557 25.8532L12.5043 25.29C13.0103 26.8138 14.4141 27.8407 16.0028 27.8407C17.5916 27.8407 19.0008 26.8138 19.5013 25.29L21.1499 25.8532C20.4045 28.1001 18.337 29.6073 15.9974 29.6073H16.0028Z" fill="#010101"/>
<path d="M26.8954 26.2773H5.10994C4.64747 26.2773 4.2666 25.8963 4.2666 25.4215C4.2666 23.3567 5.21876 21.4465 6.83471 20.2209V12.4973C6.83471 7.37394 10.948 3.2002 16.0027 3.2002C21.0573 3.2002 25.1652 7.37394 25.1652 12.4973V20.2209C26.7811 21.4465 27.7333 23.3567 27.7333 25.4215C27.7333 25.8908 27.3578 26.2773 26.8899 26.2773H26.8954ZM6.02402 24.5713H25.9759C25.7473 23.2684 24.9965 22.1201 23.8702 21.3913C23.6308 21.2367 23.4839 20.9607 23.4839 20.6736V12.5028C23.4839 8.318 20.1269 4.91165 16.0027 4.91165C11.8784 4.91165 8.5214 8.31248 8.5214 12.4973V20.6681C8.5214 20.9607 8.37449 21.2312 8.13509 21.3858C7.00882 22.1145 6.25798 23.2684 6.02946 24.5658L6.02402 24.5713Z" fill="#010101"/>
</svg>
