<svg width="50" height="50" viewBox="0 0 50 50" fill="none" xmlns="http://www.w3.org/2000/svg">
<path d="M14.376 29.1621L19.1578 36.0036" stroke="#0051A3" stroke-width="2.5" stroke-miterlimit="10" stroke-linecap="round"/>
<path d="M24.9185 36.193V25.7363" stroke="#0051A3" stroke-width="2.5" stroke-miterlimit="10" stroke-linecap="round"/>
<path d="M36.2542 29.1621L31.458 36.0036" stroke="#0051A3" stroke-width="2.5" stroke-miterlimit="10" stroke-linecap="round"/>
<path d="M40.5031 20.3492L40.5607 22.7545C40.5607 22.8553 40.6183 22.9417 40.6903 22.9993L42.7067 24.31C42.9228 24.4397 42.8796 24.7565 42.6491 24.8429L40.3878 25.6351C40.3014 25.6639 40.2294 25.7503 40.2006 25.8368L39.5813 28.1557C39.5092 28.4005 39.2068 28.4581 39.0483 28.2565L37.5936 26.3553C37.536 26.2833 37.4352 26.2256 37.3344 26.24L34.9435 26.3553C34.6986 26.3697 34.5402 26.096 34.6842 25.88L36.0525 23.9067C36.1101 23.8203 36.1245 23.7195 36.0813 23.6331L35.2315 21.3862C35.1451 21.1558 35.3611 20.9253 35.606 20.9973L37.9105 21.6887C38.0113 21.7175 38.1121 21.7031 38.1842 21.6311L40.0566 20.1187C40.2006 19.9747 40.4887 20.1043 40.5031 20.3492Z" fill="#0051A3"/>
<path d="M25.3512 14.1711L26.4171 16.3171C26.4603 16.4036 26.5467 16.4612 26.6475 16.4756L29.024 16.8212C29.2689 16.8501 29.3697 17.1669 29.1969 17.3398L27.4829 19.0105C27.4109 19.0825 27.3821 19.1834 27.3965 19.2842L27.7998 21.6463C27.843 21.8911 27.5837 22.0784 27.3677 21.9632L25.236 20.8397C25.1496 20.7965 25.0488 20.7965 24.9623 20.8397L22.8307 21.9632C22.6146 22.0784 22.3554 21.8911 22.3986 21.6463L22.8019 19.2842C22.8163 19.1834 22.7875 19.0825 22.7155 19.0105L20.9871 17.3398C20.7998 17.1669 20.9007 16.8645 21.1455 16.8357L23.522 16.49C23.6229 16.4756 23.7093 16.418 23.7525 16.3315L24.8183 14.1855C24.9335 13.9406 25.2504 13.9406 25.3512 14.1711Z" fill="#0051A3"/>
<path d="M11.1061 20.2349L12.8776 21.8624C12.9497 21.92 13.0505 21.9488 13.1369 21.9344L15.4846 21.3871C15.7295 21.3295 15.9311 21.5744 15.8303 21.8048L14.8365 23.9941C14.7933 24.0805 14.7933 24.1957 14.8509 24.2821L16.0895 26.3418C16.2048 26.5434 16.0319 26.8171 15.7871 26.7883L13.4106 26.5146C13.3097 26.5002 13.2089 26.5434 13.1369 26.6154L11.567 28.4302C11.4085 28.6175 11.0917 28.5311 11.0484 28.2862L10.5587 25.9385C10.5443 25.8377 10.4867 25.7657 10.3859 25.7225L8.18223 24.7863C7.95178 24.6854 7.93738 24.3686 8.15342 24.2389L10.2419 23.0579C10.3283 23.0147 10.3859 22.9138 10.4003 22.8274L10.6164 20.4365C10.6164 20.1917 10.9188 20.0764 11.1061 20.2349Z" fill="#0051A3"/>
</svg>
