<svg width="24" height="24" viewBox="0 0 24 24" fill="none" xmlns="http://www.w3.org/2000/svg">
<g clip-path="url(#clip0_66_2293)">
<path d="M4.39941 14.3418L7.69904 19.0627" stroke="#010101" stroke-width="1.72509" stroke-miterlimit="10" stroke-linecap="round"/>
<path d="M11.6743 19.192V11.9766" stroke="#010101" stroke-width="1.72509" stroke-miterlimit="10" stroke-linecap="round"/>
<path d="M19.4966 14.3418L16.187 19.0627" stroke="#010101" stroke-width="1.72509" stroke-miterlimit="10" stroke-linecap="round"/>
<path d="M22.428 8.25911L22.4678 9.91886C22.4678 9.98843 22.5075 10.0481 22.5572 10.0878L23.9486 10.9922C24.0977 11.0817 24.0679 11.3003 23.9089 11.36L22.3485 11.9066C22.2889 11.9265 22.2392 11.9861 22.2193 12.0457L21.792 13.6458C21.7423 13.8148 21.5336 13.8546 21.4242 13.7154L20.4204 12.4035C20.3807 12.3538 20.3111 12.3141 20.2415 12.324L18.5917 12.4035C18.4228 12.4135 18.3134 12.2246 18.4128 12.0755L19.357 10.714C19.3967 10.6543 19.4067 10.5847 19.3769 10.5251L18.7905 8.97469C18.7309 8.81567 18.8799 8.65665 19.0489 8.70634L20.6391 9.1834C20.7086 9.20328 20.7782 9.19334 20.8279 9.14365L22.1199 8.10009C22.2193 8.0007 22.4181 8.09015 22.428 8.25911Z" fill="#010101"/>
<path d="M11.9728 3.99696L12.7083 5.47781C12.7381 5.53745 12.7977 5.5772 12.8673 5.58714L14.5072 5.82567C14.6761 5.84554 14.7457 6.06419 14.6265 6.18346L13.4438 7.33634C13.3941 7.38603 13.3742 7.4556 13.3841 7.52517L13.6624 9.15511C13.6922 9.32407 13.5133 9.45327 13.3642 9.37376L11.8933 8.59855C11.8337 8.56873 11.7641 8.56873 11.7045 8.59855L10.2336 9.37376C10.0845 9.45327 9.9056 9.32407 9.93542 9.15511L10.2137 7.52517C10.2236 7.4556 10.2038 7.38603 10.1541 7.33634L8.96143 6.18346C8.83223 6.06419 8.9018 5.85548 9.07075 5.8356L10.7106 5.59708C10.7802 5.58714 10.8398 5.54738 10.8696 5.48775L11.6051 4.00689C11.6846 3.83794 11.9033 3.83794 11.9728 3.99696Z" fill="#010101"/>
<path d="M2.14329 8.18107L3.36574 9.30413C3.41544 9.34389 3.48501 9.36377 3.54464 9.35383L5.16464 8.97616C5.33359 8.9364 5.47273 9.10536 5.40316 9.26438L4.7174 10.7751C4.68758 10.8347 4.68758 10.9142 4.72734 10.9738L5.58206 12.3951C5.66157 12.5342 5.5423 12.723 5.37335 12.7031L3.73347 12.5143C3.6639 12.5044 3.59433 12.5342 3.54464 12.5839L2.46133 13.8362C2.352 13.9654 2.13335 13.9057 2.10354 13.7368L1.76562 12.1168C1.75568 12.0472 1.71593 11.9975 1.64636 11.9677L0.125746 11.3217C-0.0332725 11.2521 -0.0432112 11.0335 0.105868 10.944L1.54697 10.129C1.6066 10.0992 1.64636 10.0297 1.6563 9.97002L1.80538 8.32021C1.80538 8.15125 2.01409 8.07174 2.14329 8.18107Z" fill="#010101"/>
</g>
<defs>
<clipPath id="clip0_66_2293">
<rect width="24" height="24" fill="white"/>
</clipPath>
</defs>
</svg>
