<svg width="16" height="16" viewBox="0 0 16 16" fill="none" xmlns="http://www.w3.org/2000/svg">
<path fill-rule="evenodd" clip-rule="evenodd" d="M8 0C12.4153 0 16 3.58467 16 8C16 12.4153 12.4153 16 8 16C3.58467 16 0 12.4153 0 8C0 3.58467 3.58467 0 8 0ZM8 0.666667C12.0473 0.666667 15.3333 3.95267 15.3333 8C15.3333 12.0473 12.0473 15.3333 8 15.3333C3.95267 15.3333 0.666667 12.0473 0.666667 8C0.666667 3.95267 3.95267 0.666667 8 0.666667ZM8.03533 12C8.346 12 8.598 11.748 8.598 11.4367C8.598 11.126 8.346 10.874 8.03533 10.874C7.72467 10.874 7.472 11.126 7.472 11.4367C7.472 11.748 7.72467 12 8.03533 12ZM8.34733 10.1187H7.682C7.65867 9.344 7.80333 8.74933 8.308 8.15667C8.63533 7.77667 9.37933 7.17067 9.60467 6.78467C10.086 5.96533 9.656 4.66667 8.09067 4.66667C7.13133 4.66667 6.34733 5.25133 6.13867 6.338L5.46 6.27C5.64667 4.77933 6.76533 4 8.07467 4C9.384 4 10.4847 4.83333 10.4847 6.14667C10.4847 7.35067 9.26733 8.00133 8.726 8.72533C8.44467 9.10067 8.356 9.64333 8.34733 10.1187Z" fill="#606060"/>
</svg>
