<svg width="28" height="28" viewBox="0 0 28 28" fill="none" xmlns="http://www.w3.org/2000/svg">
<path fill-rule="evenodd" clip-rule="evenodd" d="M14 0C21.7268 0 28 6.27317 28 14C28 21.7268 21.7268 28 14 28C6.27317 28 0 21.7268 0 14C0 6.27317 6.27317 0 14 0ZM14 1.16667C21.0828 1.16667 26.8333 6.91717 26.8333 14C26.8333 21.0828 21.0828 26.8333 14 26.8333C6.91717 26.8333 1.16667 21.0828 1.16667 14C1.16667 6.91717 6.91717 1.16667 14 1.16667ZM14 13.1752L20.1752 7L21 7.82483L14.8248 14L21 20.1752L20.1752 21L14 14.8248L7.82483 21L7 20.1752L13.1752 14L7 7.82483L7.82483 7L14 13.1752Z" fill="white"/>
</svg>
