<svg width="24" height="24" viewBox="0 0 24 24" fill="none" xmlns="http://www.w3.org/2000/svg">
<path d="M21.0991 3H2.90092C1.30225 3 0 4.32463 0 5.95078V17.0492C0 18.6754 1.30225 20 2.90092 20H21.0991C22.6978 20 24 18.6754 24 17.0492V5.95078C24 4.32463 22.6978 3 21.0991 3ZM2.90092 4.51096H21.0991C21.8784 4.51096 22.5146 5.15803 22.5146 5.95078V6.05241H1.48543V5.95078C1.48543 5.15803 2.12157 4.51096 2.90092 4.51096V4.51096ZM22.5146 8.81008H1.48543V7.56337H22.5146V8.81008ZM21.0991 18.489H2.90092C2.12157 18.489 1.48543 17.842 1.48543 17.0492V10.3177H22.5146V17.0492C22.5146 17.842 21.8784 18.489 21.0991 18.489Z" fill="white"/>
<path d="M16.542 11H8.16236C7.52041 11 7 11.5294 7 12.1823V12.5652C7 13.2182 7.52041 13.7475 8.16236 13.7475H16.542C17.184 13.7475 17.7044 13.2182 17.7044 12.5652V12.1823C17.7044 11.5294 17.184 11 16.542 11Z" fill="#FFC112"/>
</svg>
