<svg width="16" height="16" viewBox="0 0 16 16" fill="none" xmlns="http://www.w3.org/2000/svg">
<path d="M5.42426 1.57574C5.18995 1.34142 4.81005 1.34142 4.57574 1.57574C4.34142 1.81005 4.34142 2.18995 4.57574 2.42426L5.42426 1.57574ZM11 8L11.4243 8.42426C11.6586 8.18995 11.6586 7.81005 11.4243 7.57574L11 8ZM4.57574 13.5757C4.34142 13.8101 4.34142 14.1899 4.57574 14.4243C4.81005 14.6586 5.18995 14.6586 5.42426 14.4243L4.57574 13.5757ZM4.57574 2.42426L10.5757 8.42426L11.4243 7.57574L5.42426 1.57574L4.57574 2.42426ZM10.5757 7.57574L4.57574 13.5757L5.42426 14.4243L11.4243 8.42426L10.5757 7.57574Z" fill="white"/>
</svg>
