<svg width="50" height="50" viewBox="0 0 50 50" fill="none" xmlns="http://www.w3.org/2000/svg">
<path d="M34.644 22.7939C34.644 17.5867 31.8762 13.6899 27.4132 12.6381L27.0845 12.5519V11.0863C27.0845 9.93109 26.1504 9 24.9914 9C23.8496 9 22.9155 9.93109 22.9155 11.0863V12.5692L22.5868 12.6381C18.1238 13.6899 15.356 17.5867 15.356 22.7939V31.3462L12 34.6912V35.7602H38V34.6912L34.644 31.3462V22.7939ZM32.153 33.2601H17.847V22.7939C17.847 18.104 20.7878 14.8279 24.9914 14.8279C29.1949 14.8279 32.1357 18.104 32.1357 22.7939V33.2601H32.153Z" fill="#2559A5"/>
<path d="M24.9914 40.3716C26.4618 40.3716 27.6727 39.2853 27.8803 37.8887H22.1025C22.3101 39.2853 23.5383 40.3716 24.9914 40.3716Z" fill="#2559A5"/>
</svg>
