<svg width="60" height="60" viewBox="0 0 60 60" fill="none" xmlns="http://www.w3.org/2000/svg">
<path d="M27.998 0H23.998V3.99998H27.998V0Z" fill="white"/>
<path d="M32.0029 0V3.99998H28.0029V7.99996H32.0029H36.0029V3.99998V0H32.0029Z" fill="white"/>
<path d="M11.999 8.00391H7.99902V12.0039H11.999V8.00391Z" fill="white"/>
<path d="M51.9995 8.00391H47.9995V12.0039H51.9995V8.00391Z" fill="white"/>
<path d="M15.9999 0H0V19.9977H19.9999V0H15.9999ZM15.9999 7.99908V15.9982H3.99998V3.99954H15.9999V7.99908Z" fill="white"/>
<path d="M56.0004 0H40.0005V19.9977H60.0004V0H56.0004ZM56.0004 7.99908V15.9982H44.0005V3.99954H56.0004V7.99908Z" fill="white"/>
<path d="M35.998 24.0021V20.0025V16.003V12.0034H31.998V16.003H27.998V12.0034V8.00391H23.998V12.0034V16.003V20.0025H27.998V24.0021H31.998V28.0016H35.998H39.998V24.0021H35.998Z" fill="white"/>
<path d="M7.99996 32.0044V28.0049V24.0054H3.99998H0V28.0049H3.99998V32.0044V36.004H7.99996H11.9999V32.0044H7.99996Z" fill="white"/>
<path d="M47.9995 28.0049V24.0054H51.9995H55.9995H59.9994V28.0049V32.0044V36.004H55.9995V32.0044V28.0049H51.9995V32.0044H47.9995H43.9995V28.0049H47.9995Z" fill="white"/>
<path d="M44.0005 40.0024H40.0005V44.0024H44.0005V40.0024Z" fill="white"/>
<path d="M51.9995 35.9893H55.9995V39.9892H59.9995V43.9892H55.9995H51.9995H47.9995V39.9892V35.9893H51.9995Z" fill="white"/>
<path d="M36.0038 32.0044V36.004H32.0038V32.0044H28.0038H24.0038V28.0049H20.0039V24.0054H16.0039V28.0049H12.0039V32.0044H16.0039V36.004H20.0039V40.0035H24.0038V36.004H28.0038V40.0035V44.0031H24.0038V48.0026H28.0038H32.0038V44.0031H36.0038V40.0035H40.0038V36.004V32.0044H36.0038Z" fill="white"/>
<path d="M11.999 47.9907H7.99902V51.9907H11.999V47.9907Z" fill="white"/>
<path d="M15.9999 40.0024H0V60.0001H19.9999V40.0024H15.9999ZM15.9999 48.0015V56.0006H3.99998V44.002H15.9999V48.0015Z" fill="white"/>
<path d="M48.6669 47.3306H44.6669H40.6669V43.3311H36.6669V47.3306V51.3301V55.3297H32.667V51.3301H28.667H24.667V55.3297V59.3292H28.667H32.667H36.6669H40.6669V55.3297V51.3301H44.6669V55.3297V59.3292H48.6669V55.3297V51.3301H52.6669V47.3306H48.6669Z" fill="white"/>
<path d="M55.9995 59.9893H51.9995V55.9898H55.9995V51.9903V47.9907H59.9995V51.9903V55.9898V59.9893H55.9995Z" fill="white"/>
</svg>
