<svg width="114" height="77" viewBox="0 0 114 77" fill="none" xmlns="http://www.w3.org/2000/svg">
<path d="M23 40.9727V46.0963V54.7614C23 58.5062 26.2222 61.5542 30.2137 61.5542H40.7803H72.4074H74.1636L23 40.9727Z" fill="#0067BC"/>
<path d="M54.003 53.4824L73.975 61.5524H74.8749C78.2567 61.5524 81 58.5044 81 54.7597V41.624C74.512 44.4689 64.3954 48.9103 54.003 53.4824Z" fill="#BD9300"/>
<path d="M81 41.4524V26.7928C81 23.048 78.2568 20 74.8749 20H29.1542C25.7723 20 23.0291 23.048 23.0291 26.7928V40.9735L53.9885 53.485L80.9855 41.6266V41.4524H81Z" fill="white"/>
<path d="M81 41.624L54.003 53.4824C64.3954 48.9103 74.512 44.4689 81 41.624Z" fill="#E7F4FD"/>
<path d="M76.7183 34.4404H65.1793V47.7357H76.7183V34.4404Z" fill="#E5B400"/>
<path d="M75.9925 35.1663V47.0101H65.9049V35.1663H75.9925ZM77.444 33.7148H75.9925H65.9049H64.4535V35.1663V47.0101V48.4616H65.9049H75.9925H77.444V47.0101V35.1663V33.7148Z" fill="white"/>
</svg>
