<svg width="127" height="28" viewBox="0 0 127 28" fill="none" xmlns="http://www.w3.org/2000/svg">
<g clip-path="url(#clip0_1318_3674)">
<path d="M48.4428 0H25.8257V7.84H48.4428V0Z" fill="#0051A3"/>
<path d="M46.0168 17.2808L25.8257 28.0008V19.6808L48.4428 7.84082V13.0408C48.4428 14.8008 47.6602 16.4008 46.0168 17.2808Z" fill="white"/>
<path d="M74.7386 0H51.6519V7.84H74.7386V0Z" fill="#0051A3"/>
<path d="M22.6171 0H0V7.84H22.6171V0Z" fill="#0051A3"/>
<path d="M20.1911 17.2808L0 28.0008V19.6808L22.6171 7.84082V13.0408C22.6171 14.8008 21.8345 16.4008 20.1911 17.2808Z" fill="white"/>
<path d="M51.6519 14.7197V18.7197C51.6519 20.7997 53.2953 22.5597 55.4083 22.5597H74.8168V14.7197H51.6519Z" fill="white"/>
<path d="M110.347 0H108.155V13.84H110.347V0Z" fill="white"/>
<path d="M93.1293 1.84H90.2337C90.2337 1.68 90.2337 1.52 90.2337 1.36V0.56H82.799V2.16H88.0424C87.8859 2.96 86.9468 5.36 82.4077 6.72L83.0338 8C83.0338 8 88.2772 6.96 89.8424 3.52H93.1293V5.04H89.2946V6.64H93.1293V8.8C92.2685 8.4 91.2511 8.24 89.9207 8.24C86.5555 8.24 84.5207 9.76 84.5207 11.6C84.5207 13.44 86.5555 14.96 89.9207 14.96C93.2859 14.96 95.3206 13.44 95.3206 11.6V0H93.1293V1.84ZM89.9207 13.28C87.9642 13.28 86.712 12.48 86.712 11.52C86.712 10.56 87.8859 9.76 89.9207 9.76C91.8772 9.76 93.1293 10.56 93.1293 11.52C93.1293 12.48 91.8772 13.28 89.9207 13.28Z" fill="white"/>
<path d="M120.364 11.5205V8.16055H124.668V6.56055H116.06V2.16055H124.668V0.560547H113.868V6.88055C113.868 7.60055 114.416 8.16055 115.12 8.16055H118.251V11.5205H112.694V13.1205H125.92V11.5205H120.364V11.5205Z" fill="white"/>
<path d="M98.3727 11.5205C105.025 8.96055 105.807 2.88055 105.807 1.04055V0.560547H98.2944V2.16055H103.46C103.147 4.40055 101.973 8.08055 97.7466 10.1605L98.3727 11.5205Z" fill="white"/>
<path d="M113.868 17.9199H112.929V22.3199H113.868V17.9199Z" fill="white"/>
<path d="M116.138 19.7598H114.495V20.4798H116.138V19.7598Z" fill="white"/>
<path d="M118.016 17.9199H116.842V22.3199H118.016C119.66 22.3199 120.52 21.5999 120.52 20.0799C120.52 18.6399 119.66 17.9199 118.016 17.9199ZM119.503 20.1599C119.503 20.8799 119.034 21.5999 118.094 21.5999H117.625V18.6399H118.094C119.034 18.6399 119.503 19.4399 119.503 20.1599Z" fill="white"/>
<path d="M123.103 17.8398C121.773 17.8398 120.99 18.7198 120.99 20.0798C120.99 21.5198 121.773 22.3998 123.103 22.3998C124.434 22.3998 125.216 21.5198 125.216 20.0798C125.216 18.7198 124.355 17.8398 123.103 17.8398ZM124.277 20.0798C124.277 20.7998 123.964 21.5998 123.103 21.5998C122.242 21.5998 121.929 20.7998 121.929 20.0798C121.929 19.3598 122.242 18.5598 123.103 18.5598C123.964 18.5598 124.277 19.4398 124.277 20.0798Z" fill="white"/>
<path d="M110.425 19.76V20.48H111.364V21.6C111.207 21.6 111.051 21.68 110.816 21.68C109.955 21.68 109.407 21.04 109.407 20.16C109.407 19.2 110.033 18.64 110.894 18.64C111.286 18.64 111.677 18.72 111.99 18.88L112.068 18.96V18.16C111.677 18 111.286 18 110.816 18C109.329 18 108.468 18.88 108.468 20.32C108.468 21.76 109.329 22.56 110.816 22.56C111.207 22.56 111.677 22.48 112.225 22.32V19.92H110.425V19.76Z" fill="white"/>
<path d="M89.921 19.6799L88.9819 17.9199H87.8862L89.4514 20.5599V22.3199H90.3905V20.5599L91.8775 17.9199H90.9384L89.921 19.6799Z" fill="white"/>
<path d="M93.1295 20.3999H94.773V19.6799H93.1295V18.6399H94.773V17.9199H92.1904V22.3199H94.773V21.5999H93.1295V20.3999Z" fill="white"/>
<path d="M97.3557 17.8398C96.0253 17.8398 95.2427 18.7198 95.2427 20.0798C95.2427 21.5198 96.0253 22.3998 97.3557 22.3998C98.6861 22.3998 99.4687 21.5198 99.4687 20.0798C99.4687 18.7198 98.6861 17.8398 97.3557 17.8398ZM97.3557 21.6798C96.4948 21.6798 96.1818 20.8798 96.1818 20.1598C96.1818 19.4398 96.4948 18.6398 97.3557 18.6398C98.2166 18.6398 98.5296 19.4398 98.5296 20.1598C98.5296 20.8798 98.2166 21.6798 97.3557 21.6798Z" fill="white"/>
<path d="M102.756 21.1199L101.19 17.9199H100.095V22.3199H100.956V19.1199L102.521 22.3199H103.616V17.9199H102.756V21.1199Z" fill="white"/>
<path d="M85.9296 19.76V20.48H86.8688V21.6C86.7122 21.6 86.5557 21.68 86.3209 21.68C85.4601 21.68 84.9123 21.04 84.9123 20.16C84.9123 19.2 85.5383 18.64 86.3992 18.64C86.7905 18.64 87.1818 18.72 87.4948 18.88L87.5731 18.96V18.16C87.1818 18 86.7905 18 86.3209 18C84.834 18 83.9731 18.88 83.9731 20.32C83.9731 21.76 84.834 22.56 86.3209 22.56C86.7122 22.56 87.1818 22.48 87.7296 22.32V19.92H85.9296V19.76Z" fill="white"/>
<path d="M106.199 19.76V20.48H107.138V21.6C106.981 21.6 106.825 21.68 106.59 21.68C105.729 21.68 105.181 21.04 105.181 20.16C105.181 19.2 105.807 18.64 106.668 18.64C107.06 18.64 107.451 18.72 107.764 18.88L107.842 18.96V18.16C107.451 18 107.06 18 106.59 18C105.103 18 104.242 18.88 104.242 20.32C104.242 21.76 105.103 22.56 106.59 22.56C106.981 22.56 107.451 22.48 107.999 22.32V19.92H106.199V19.76Z" fill="white"/>
</g>
<defs>
<clipPath id="clip0_1318_3674">
<rect width="127" height="28" fill="white"/>
</clipPath>
</defs>
</svg>
